/* XPM */
static char *_fc362be2f0040c3db5cc7ac10a9f1aa9zzLu3vMSk60FZRs[] = {
/* columns rows colors chars-per-pixel */
"32 32 96 2 ",
"   c #4F2A14",
".  c #532D16",
"X  c #552E18",
"o  c #553017",
"O  c #56311B",
"+  c #59331C",
"@  c #5C391F",
"#  c #543424",
"$  c #5A3621",
"%  c #573927",
"&  c #5E3C22",
"*  c #5D3D2A",
"=  c #573E32",
"-  c #603E25",
";  c #613F28",
":  c #5F4025",
">  c #5E4331",
",  c #5D493F",
"<  c #614126",
"1  c #64452A",
"2  c #69462E",
"3  c #66492B",
"4  c #694C2F",
"5  c #6B502F",
"6  c #614633",
"7  c #634935",
"8  c #6B4B32",
"9  c #654D3B",
"0  c #684D3B",
"q  c #704E36",
"w  c #6E5334",
"e  c #67503C",
"r  c #6A533E",
"t  c #705335",
"y  c #715539",
"u  c #755B3B",
"i  c #785F3E",
"p  c #79603F",
"a  c #6C5641",
"s  c #6D5A45",
"d  c #6D5D4B",
"f  c #725B46",
"g  c #795E40",
"h  c #725E49",
"j  c #7C6242",
"k  c #74624D",
"l  c #78624D",
"z  c #756551",
"x  c #7A6652",
"c  c #776854",
"v  c #7A6956",
"b  c #7D6B57",
"n  c #7E6B57",
"m  c #7C6D5C",
"M  c #7F705E",
"N  c #7F7261",
"B  c #816747",
"V  c #816847",
"C  c #826749",
"Z  c #836949",
"A  c #846A4A",
"S  c #836A4C",
"D  c #856B4C",
"F  c #856C4E",
"G  c #866E50",
"H  c #816E5B",
"J  c #877050",
"K  c #887050",
"L  c #8A7354",
"P  c #8B7556",
"I  c #8C7454",
"U  c #81705D",
"Y  c #8E7758",
"T  c #8F795A",
"R  c #827563",
"E  c #867765",
"W  c #887966",
"Q  c #857868",
"!  c #8B7C69",
"~  c #8A7C6A",
"^  c #8D7E6D",
"/  c #91836F",
"(  c #8F8271",
")  c #908271",
"_  c #918473",
"`  c #968976",
"'  c #968A79",
"]  c #988B79",
"[  c #998C7A",
"{  c #9B8E7D",
"}  c #998D7E",
"|  c #9E9281",
" . c #9F9584",
".. c #CACAC9",
"X. c gray85",
"o. c gainsboro",
/* pixels */
"o.r q q 2 ..X.X.X.X.X.X.X.X.X.X.X.X.X.X.X.X.X.X.X.X.X.6 8 8 8 ..",
"r { ` ` 8 2 2 2 2 8 2 8 8 8 8 8 8 8 2 2 2 2 2 2 2 2 2 1 / ` | y ",
"r | [ ] 8 j Z K I I Y T T K K J G F S K K K K F A Z B 2 _ '  .y ",
"0 { | | 2 g A K K I Y T T & 2 1 2 1 $ K P P L K D C j 2 ] | | 8 ",
"% n x x O 2 2 4 4 8 t t t X ! n R ^ + 8 t t t 8 8 2 2 - l x H O ",
"% x l l O X X X X X X X X . ) ' f _ + X X X X X X X X X h k n O ",
"% x k k O & & & & & & & & X ) ' ' ' + & & & & & & @ & X h k v O ",
"# z h k X & & & & - - & & O a h h f O & & & & & & @ @ . f k v X ",
"# k h h X & < < < 1 1 1 < < X X X X < < < < : & & & & . s h x X ",
"> 7 6 2 O 4 t t y u u u u u u u u u u u u u u u u y t . $ $ $ . ",
"* E ! E O @ @ $ & & & & - < < < < < < < < - - - - & & . E ! ! O ",
"% e r r . X X X X X O O O O O O O O O O O O O O X X X . r r r & ",
"% ; * & + 8 w t y u u u u u u i i g g u u u u u y w w . 1 1 1 & ",
"% U v x O 1 3 1 3 1 1 3 3 3 3 3 3 3 3 3 3 3 3 3 3 3 3 X k v R @ ",
"% R n v O 1 1 1 1 1 1 1 1 1 1 1 1 1 1 1 3 1 1 3 3 1 1 X x v Q $ ",
"6 ( ! ! & & & & & & & & & & & & & & & & & & & & & & & + R W _ 1 ",
"7 ` _ ) ; @ @ @ + O + @ + + O O O O O O O O O O O O O & ^ ( { 8 ",
"7 { ' ' 1 + @ @ + + + @ O O O O O O O O @ O O + + + + - ) ' | 8 ",
"6 { { { < y Z A Z Z Z O j V V V Z Z Z A O j Z Z Z Z Z - _ { | 8 ",
"% E N m O 8 u u u u j O i u u u u u u j O j u u u u i O n M ! < ",
"% R m m O 2 u u u u j o i u u u u u u j o j u u u u u O v m Q ; ",
"% m v c O 1 u u u u p o u u u u u u u j o i u u u u u O k z R & ",
"% v z z O 1 w t t w u o u w w w w w w i o u w w w w t o k z m $ ",
"% z k k O 1 w w w w u X u w w w w w w i o u w w w w t . d k c O ",
"% k h h . < w w w w u X w w w w w w w u o u w w w w w . a s k X ",
"# k s s X - 4 4 4 4 u X w 4 4 4 4 4 4 w X w w w w 5 w . a s k X ",
"# f a r X & 4 4 4 3 u . 8 4 4 4 4 4 4 w X w 4 4 4 4 4 . e r f X ",
"# * 1 * * & : & & < w X 1 < < < < < < 3 . 3 < < : : : & & * * . ",
"# M N N R X O O @ @ $ $ $ $ $ $ $ $ $ $ $ $ $ @ O O   m N N R X ",
"# s d d z X k v v m m R E E Q Q Q E R R R R R m n v X k d d d . ",
"# > 6 > s . 7 7 7 7 7 9 9 9 9 9 9 e 9 9 9 9 9 9 9 9 . a 7 6 6 . ",
", = = = = = = = = = = = = = = = = = = = = = = = = = = = = = = = "
};
