/* XPM */
static char *c29697ae2a0f4f4cd2c01e4989b5be44kPVT5l0wFS5LukFl[] = {
/* columns rows colors chars-per-pixel */
"32 32 91 1 ",
"  c None",
". c black",
"X c #010102",
"o c #050302",
"O c #060402",
"+ c #030307",
"@ c #0B0704",
"# c #0C0704",
"$ c #0C0907",
"% c #04050A",
"& c #05050B",
"* c #06060C",
"= c #06070D",
"- c #0F0B0C",
"; c #130D08",
": c #140D08",
"> c #160E08",
", c #180E09",
"< c #1A100A",
"1 c #1C120B",
"2 c #1E140C",
"3 c #1F150C",
"4 c #1A1110",
"5 c #1D1510",
"6 c #1F1610",
"7 c #28190F",
"8 c #2A190F",
"9 c #241811",
"0 c #251914",
"q c #2D1D11",
"w c #2F1E12",
"e c #311E12",
"r c #322114",
"t c #372315",
"y c #382214",
"u c #392617",
"i c #312319",
"p c #081020",
"a c #0E1422",
"s c #0A1730",
"d c #0D1C39",
"f c #3C2B20",
"g c #402717",
"h c #412B1A",
"j c #452B1A",
"k c #432D1B",
"l c #442D1B",
"z c #432D1F",
"x c #482E1B",
"c c #4A2F1C",
"v c #4D321E",
"b c #4F331F",
"n c #402D22",
"m c #463022",
"M c #4D3120",
"N c #4E3522",
"B c #523620",
"V c #543821",
"C c #573A23",
"Z c #593A27",
"A c #483B3E",
"S c #5D412F",
"D c #5A453E",
"F c #664530",
"G c #6A4830",
"H c #694834",
"J c #6F4C34",
"K c #6C4C38",
"L c #70503D",
"P c #7B553B",
"I c #7E583F",
"U c #1B2540",
"Y c #132C5A",
"T c #1B305C",
"R c #3B3948",
"E c #21345E",
"W c #1A3B74",
"Q c #293961",
"! c #41414F",
"~ c #44414D",
"^ c #464551",
"/ c #484957",
"( c #8C6247",
") c #8E6448",
"_ c #94684D",
"` c #986C50",
"' c #A17356",
"] c #20498B",
"[ c #204B94",
"{ c #23519C",
"} c #2759A6",
/* pixels */
"                                ",
"                                ",
"                                ",
"                                ",
"                                ",
"                                ",
"             .;O#13@            ",
"           #13kwtBk;            ",
"          .wBCCbBCr,O           ",
"          #hCCCCCCCb7O          ",
"         .8bCCCCCCCCl>          ",
"         .8bCCCCCCCCx>          ",
"         .8cVVCCCCCBj>          ",
"          ,ycBVCCBbjg>          ",
"          .8ggcMbjgge@          ",
"          .zMggggggZ9           ",
"           nHFbggZFK5           ",
"           .S'IFF_`i            ",
"           .uP))))G3            ",
"           9NVCCCCCm$           ",
"          .LJVVZCCB(f           ",
"           nA!/~^/RD5           ",
"           .Y{}W]}[s            ",
"           &UQTpdEQa&           ",
"          ==40-=%40;==          ",
"           ==========           ",
"                                ",
"                                ",
"                                ",
"                                ",
"                                ",
"                                "
};
