/* XPM */
static char *cdab2ed71992409ec2a2998fdbaebd0abPDclLzjVvK6g5lc[] = {
/* columns rows colors chars-per-pixel */
"32 32 125 2 ",
"   c None",
".  c black",
"X  c #010103",
"o  c #040301",
"O  c #050302",
"+  c #060402",
"@  c #070503",
"#  c #030407",
"$  c #0A0704",
"%  c #0B0704",
"&  c #05050B",
"*  c #05060C",
"=  c #05070C",
"-  c #06070D",
";  c #0F0D0B",
":  c #08080C",
">  c #09090C",
",  c #110B06",
"<  c #1B0E0B",
"1  c #1E130B",
"2  c #1F130B",
"3  c #1E140D",
"4  c #0E0D11",
"5  c #161011",
"6  c #171112",
"7  c #2B1B10",
"8  c #291C11",
"9  c #2B1C11",
"0  c #2E1E12",
"q  c #231F1A",
"w  c #301E11",
"e  c #311F12",
"r  c #2D2019",
"t  c #342013",
"y  c #352315",
"u  c #372516",
"i  c #31241C",
"p  c #3D2919",
"a  c #131F38",
"s  c #0F223F",
"d  c #3E2D24",
"f  c #402717",
"g  c #412818",
"h  c #432918",
"j  c #442A19",
"k  c #472D1B",
"l  c #472D1C",
"z  c #482E1B",
"x  c #482E1C",
"c  c #482E1D",
"v  c #4A2F1D",
"b  c #47301D",
"n  c #4B301D",
"m  c #4C311D",
"M  c #4C301F",
"N  c #4F341F",
"B  c #50341F",
"V  c #493024",
"C  c #513621",
"Z  c #533721",
"A  c #533622",
"S  c #533624",
"D  c #543822",
"F  c #553922",
"G  c #573A23",
"H  c #583A25",
"J  c #5A3C27",
"K  c #553928",
"L  c #543C2E",
"P  c #5F4029",
"I  c #5D412D",
"U  c #54433B",
"Y  c #5D4638",
"T  c #66462D",
"R  c #664939",
"E  c #734F38",
"W  c #7A543C",
"Q  c #7C563F",
"!  c #373645",
"~  c #3B3C48",
"^  c #3B4052",
"/  c #3E4354",
"(  c #494644",
")  c #6F5F4F",
"_  c #7A5945",
"`  c #7F705D",
"'  c #815A40",
"]  c #865E44",
"[  c #8C6248",
"{  c #8D654C",
"}  c #887058",
"|  c #93735B",
" . c #A57558",
".. c #A77B5E",
"X. c #AC7B5D",
"o. c #9F7C61",
"O. c #917E68",
"+. c #857373",
"@. c #AD7E60",
"#. c #9E8269",
"$. c #9B846B",
"%. c #A7896E",
"&. c #B48D6F",
"*. c #A49078",
"=. c #AE977C",
"-. c #B69275",
";. c #B99A7D",
":. c #375485",
">. c #3C5580",
",. c #285596",
"<. c #24539E",
"1. c #2C65B5",
"2. c #536589",
"3. c #536E99",
"4. c #787E97",
"5. c #4B71AC",
"6. c #587DB5",
"7. c #8B7D82",
"8. c #7D839A",
"9. c #858490",
"0. c #929199",
"q. c #B6A286",
"w. c #BFA689",
"e. c #979CAC",
"r. c #C1AC8F",
/* pixels */
"                                                                ",
"                                                                ",
"                                                                ",
"                                                                ",
"                                                                ",
"                                                                ",
"                      . . . .   . .                             ",
"                      $ u y 2 @ 0 . . .                         ",
"                      @ 8 G x w N 7 u 8 .                       ",
"                    O 7 p G G B G B G A 8 .                     ",
"                  O w B G G G G G G G G A 8 .                   ",
"                  $ j G G n G G G z n G G b .                   ",
"                  $ g z k j G G A m ] ' n N 2 .                 ",
"                  $ g m f j G G A [ X. .W k t .                 ",
"                  $ j G H W n P Q R ;.%.V 2 t .                 ",
"                  $ g n T  .W I #.d r.*.< O ,                   ",
"                    2 g J X...$.q.O.r.q.) .                     ",
"                      2 l E @.-.r.r.r.w.| .                     ",
"                        2 l E @.&.&.&.o.r                       ",
"                        $ f x _ 7.7.+.K .                       ",
"                        $ g B Y 4.8.9.t .                       ",
"                      ; ` } G Y 8.e.0.x L .                     ",
"                      q r.=.G U 5.6.3.S { .                     ",
"                      4 ( 2.>.:.<.1.,.3 i #                     ",
"                      = : ! / s a ^ ~ . =                       ",
"                    = = : 5 5 & : 5 5 = = =                     ",
"                      = = = = = = = = = =                       ",
"                                                                ",
"                                                                ",
"                                                                ",
"                                                                ",
"                                                                "
};
