/* XPM */
static char *_8ec99490986448fe8d8598957ef9e7eXR7A6U1S6HrMNIV6[] = {
/* columns rows colors chars-per-pixel */
"32 32 129 2 ",
"   c None",
".  c black",
"X  c #010203",
"o  c #040302",
"O  c #020205",
"+  c #0A0604",
"@  c #0C0804",
"#  c #0E0905",
"$  c #040408",
"%  c #05060C",
"&  c #06070D",
"*  c #0A0809",
"=  c #0E0A0A",
"-  c #100B07",
";  c #110B07",
":  c #120B07",
">  c #130D08",
",  c #130E0B",
"<  c #160F09",
"1  c #140E0A",
"2  c #171009",
"3  c #1C110A",
"4  c #1F140C",
"5  c #1C140F",
"6  c #060C16",
"7  c #0A111B",
"8  c #1B1917",
"9  c #23160C",
"0  c #24180E",
"q  c #231711",
"w  c #2E1E16",
"e  c #251F19",
"r  c #331F12",
"t  c #2F2017",
"y  c #24201B",
"u  c #26221C",
"i  c #332214",
"p  c #392315",
"a  c #3C2516",
"s  c #37251B",
"d  c #3F2A19",
"f  c #3D281F",
"g  c #432A19",
"h  c #412A1A",
"j  c #442B19",
"k  c #462F1C",
"l  c #4A2F1C",
"z  c #49311D",
"x  c #4A321E",
"c  c #4D321E",
"v  c #4F341F",
"b  c #402F26",
"n  c #41372C",
"m  c #513520",
"M  c #523620",
"N  c #533721",
"B  c #513422",
"V  c #533622",
"C  c #543721",
"Z  c #553725",
"A  c #563922",
"S  c #563923",
"D  c #573A23",
"F  c #583926",
"G  c #593D29",
"H  c #5B3C28",
"J  c #5C3D29",
"K  c #5D3E2A",
"L  c #5C4028",
"P  c #604433",
"I  c #6B4931",
"U  c #6D4A34",
"Y  c #60493B",
"T  c #67503B",
"R  c #6E533B",
"E  c #73513C",
"W  c #112750",
"Q  c #1C396D",
"!  c #193972",
"~  c #28446F",
"^  c #454C5F",
"/  c #604C40",
"(  c #635143",
")  c #725741",
"_  c #7E5841",
"`  c #625A58",
"'  c #6F6353",
"]  c #845C43",
"[  c #8F664E",
"{  c #896750",
"}  c #976D53",
"|  c #9C6F53",
" . c #977055",
".. c #957158",
"X. c #A57659",
"o. c #A0795D",
"O. c #AC7B5D",
"+. c #9C7867",
"@. c #9E7C6D",
"#. c #8F8372",
"$. c #9B8A73",
"%. c #AA8064",
"&. c #B2886A",
"*. c #A28E76",
"=. c #AA967C",
"-. c #B09176",
";. c #B39377",
":. c #B1997D",
">. c #315186",
",. c #33558B",
"<. c #36588D",
"1. c #24539C",
"2. c #295EAC",
"3. c #325FA0",
"4. c #2B63B3",
"5. c #616B87",
"6. c #727180",
"7. c #416FAF",
"8. c #7D90B1",
"9. c #82879E",
"0. c #84899F",
"q. c #838F9F",
"w. c #979490",
"e. c #AA9881",
"r. c #BB9F81",
"t. c #BCA184",
"y. c #8496B5",
"u. c #C0A98C",
"i. c #C1AC8F",
/* pixels */
"                                                                ",
"                                                                ",
"                                                                ",
"                                                                ",
"                                                                ",
"                      . > 2 :   > o                             ",
"                      . i C l 3 x 0 2 :                         ",
"                      @ > x D l V D D l @                       ",
"                    @ a C D D m D D D F 9                       ",
"                  . p C D m m j c D D S l @                     ",
"                  . k D F j G L J I S S S -                     ",
"                  . k D V G | O.O.O.U C S -                     ",
"                  . h D G _ O.&.&.[ X.Z h +                     ",
"                  . 9 v o.f *.i.i.b  .) >                       ",
"                    . G :.( =.i.i.( =.t.u                       ",
"                    . P -.u.i.i.i.t.t.{ >                       ",
"                      . E ;.r.r.t.r.} 5                         ",
"                      . r ] +.@.$.} B @                         ",
"                      . p C 6.0.0.Y l -                         ",
"                      u T J 5.8.y./ R n                         ",
"                    . $.i.` 3.2.4.^ e.i.u                       ",
"                    . ' w.7.2.! 1.4.q.#.8                       ",
"                      O ~ <.Q 6 W >.,.7 &                       ",
"                    & $ q s * & $ w w * & &                     ",
"                      & & & & & & & & & &                       ",
"                                                                ",
"                                                                ",
"                                                                ",
"                                                                ",
"                                                                ",
"                                                                ",
"                                                                "
};
