/* XPM */
static char *_358464c784940879f217c2a8fea7b7b1DhtVcjHvH1ejHJ7[] = {
/* columns rows colors chars-per-pixel */
"32 32 125 2 ",
"   c None",
".  c black",
"X  c #010103",
"o  c #040101",
"O  c #040301",
"+  c #050401",
"@  c #060402",
"#  c #020204",
"$  c #030306",
"%  c #030407",
"&  c #0A0704",
"*  c #0B0704",
"=  c #0E0A04",
"-  c #030308",
";  c #030408",
":  c #050508",
">  c #0B0808",
",  c #09090C",
"<  c #0A0A0D",
"1  c #0E0B0C",
"2  c #100C0C",
"3  c #1B0E0B",
"4  c #1D1209",
"5  c #1E130B",
"6  c #1E140D",
"7  c #271910",
"8  c #2B1B10",
"9  c #291C11",
"0  c #2E1E12",
"q  c #281B15",
"w  c #231F1A",
"e  c #301E11",
"r  c #311F12",
"t  c #2D211A",
"y  c #342013",
"u  c #352315",
"i  c #372516",
"p  c #3D2919",
"a  c #131F38",
"s  c #0F223F",
"d  c #3E2D24",
"f  c #402717",
"g  c #412818",
"h  c #432918",
"j  c #442A19",
"k  c #472D1B",
"l  c #472D1C",
"z  c #482E1B",
"x  c #482E1C",
"c  c #482E1D",
"v  c #4A2F1D",
"b  c #47301D",
"n  c #4B301D",
"m  c #4C311D",
"M  c #4C301F",
"N  c #4F341F",
"B  c #50341F",
"V  c #493024",
"C  c #4D372B",
"Z  c #513621",
"A  c #533721",
"S  c #533622",
"D  c #533624",
"F  c #543822",
"G  c #553922",
"H  c #573A23",
"J  c #583A25",
"K  c #5A3C27",
"L  c #553928",
"P  c #5F4029",
"I  c #5D412D",
"U  c #54433B",
"Y  c #5D4638",
"T  c #66462D",
"R  c #664939",
"E  c #734F38",
"W  c #7A543C",
"Q  c #7C563F",
"!  c #373645",
"~  c #3B3C48",
"^  c #3B4052",
"/  c #3E4354",
"(  c #494644",
")  c #6F5F4F",
"_  c #7A5945",
"`  c #7F705D",
"'  c #815A40",
"]  c #865E44",
"[  c #8C6248",
"{  c #8D654C",
"}  c #887058",
"|  c #93735B",
" . c #A57558",
".. c #A77B5E",
"X. c #AC7B5D",
"o. c #9F7C61",
"O. c #917E68",
"+. c #857373",
"@. c #AD7E60",
"#. c #9E8269",
"$. c #9B846B",
"%. c #A7896E",
"&. c #B48D6F",
"*. c #A49078",
"=. c #AE977C",
"-. c #B69275",
";. c #B99A7D",
":. c #375485",
">. c #3C5580",
",. c #285596",
"<. c #24539E",
"1. c #2C65B5",
"2. c #536589",
"3. c #536E99",
"4. c #787E97",
"5. c #4B71AC",
"6. c #587DB5",
"7. c #8B7D82",
"8. c #7D839A",
"9. c #858490",
"0. c #929199",
"q. c #B6A286",
"w. c #BFA689",
"e. c #979CAC",
"r. c #C1AC8F",
/* pixels */
"                                                                ",
"                                                                ",
"                                                                ",
"                                                                ",
"                                                                ",
"                                                                ",
"                            . .   . . . .                       ",
"                        . . . 0 + 4 i i &                       ",
"                      . 7 i 8 m y k H 8 +                       ",
"                    . 7 Z H B H N F H p 8 o                     ",
"                  . 7 Z H H H H H H J H Z e o                   ",
"                  . b H H m z A H H m A H h *                   ",
"                . 4 V m ' [ m H H H g k z g *                   ",
"                . y l W  .X.[ B F H h f m h *                   ",
"                . y 4 V %.;.R W P m W J H g &                   ",
"                  = + 3 *.r.d #.I W  .T m g *                   ",
"                    . ) q.r.O.q.$...X.K g 6                     ",
"                    . | w.r.r.r.-.@.E l 4                       ",
"                      q o.&.&.&.X.E l 6                         ",
"                      . L +.7.7._ n f *                         ",
"                      . y 9.8.4.Y Z g =                         ",
"                    . C c 0.e.8.Y H } ` >                       ",
"                    . { D 3.6.5.U H =.r.w                       ",
"                    $ t 6 ,.1.<.:.>.2.( <                       ",
"                      ; . ~ ^ a s / ! < %                       ",
"                    % % : 2 1 : $ 2 1 : $ %                     ",
"                      % ; ; ; % - % % % %                       ",
"                                                                ",
"                                                                ",
"                                                                ",
"                                                                ",
"                                                                "
};
