/* XPM */
static char *_7b7a49b4fee4643c686dcb52788a5a6fvFuOUp6aWrzQPjp[] = {
/* columns rows colors chars-per-pixel */
"32 32 193 2 ",
"   c None",
".  c #0B0605",
"X  c #060B04",
"o  c #030F04",
"O  c #0B0A05",
"+  c #06070D",
"@  c #060C0E",
"#  c #0A0909",
"$  c #0A090E",
"%  c #0D090E",
"&  c #0E0B0E",
"*  c #0D0C0D",
"=  c #160D0A",
"-  c #130C0E",
";  c #031205",
":  c #051907",
">  c #07100E",
",  c #0C140E",
"<  c #061D09",
"1  c #061E09",
"2  c #07190E",
"3  c #081A08",
"4  c #0B1E0A",
"5  c #0B1C0D",
"6  c #0D1D0D",
"7  c #171C0D",
"8  c #1E1A0F",
"9  c #0E0E12",
"0  c #0F0F12",
"q  c #0F0F13",
"w  c #110E11",
"e  c #100F13",
"r  c #101013",
"t  c #171011",
"y  c #141612",
"u  c #111014",
"i  c #121014",
"p  c #121114",
"a  c #191212",
"s  c #1C1211",
"d  c #1D1313",
"f  c #1D1514",
"g  c #1C1B11",
"h  c #211511",
"j  c #211715",
"k  c #221916",
"l  c #251A17",
"z  c #2C1C14",
"x  c #2A1E1A",
"c  c #0C260C",
"v  c #15230E",
"b  c #16250F",
"n  c #12290F",
"m  c #122D0F",
"M  c #0A310F",
"N  c #0A2510",
"B  c #0B2B11",
"V  c #112110",
"C  c #132F10",
"Z  c #1A2811",
"A  c #182F12",
"S  c #0F3010",
"D  c #0B3410",
"F  c #0C3610",
"G  c #0F3811",
"H  c #0D3A12",
"J  c #0D3B13",
"K  c #0F3F14",
"L  c #123312",
"P  c #173111",
"I  c #143012",
"U  c #123512",
"Y  c #173614",
"T  c #1B3415",
"R  c #133F14",
"E  c #193914",
"W  c #1D3D17",
"Q  c #202212",
"!  c #242513",
"~  c #262614",
"^  c #202C14",
"/  c #252F16",
"(  c #2B2916",
")  c #312017",
"_  c #332017",
"`  c #342017",
"'  c #362319",
"]  c #39261B",
"[  c #3B271B",
"{  c #38271E",
"}  c #302D19",
"|  c #342D1B",
" . c #3E2A1D",
".. c #3E331F",
"X. c #493122",
"o. c #4B3323",
"O. c #503625",
"+. c #104115",
"@. c #144316",
"#. c #114517",
"$. c #154717",
"%. c #184717",
"&. c #1A4617",
"*. c #174C1A",
"=. c #1A4B19",
"-. c #1A4C19",
";. c #184E1A",
":. c #1A4E1A",
">. c #1C511B",
",. c #1F511B",
"<. c #19521C",
"1. c #1A521C",
"2. c #1F521C",
"3. c #1C541D",
"4. c #1D551D",
"5. c #1F561E",
"6. c #1D581E",
"7. c #225A1F",
"8. c #225B1F",
"9. c #265A1F",
"0. c #275B1F",
"q. c #1F5B20",
"w. c #235E21",
"e. c #255E21",
"r. c #245F21",
"t. c #236122",
"y. c #246122",
"u. c #256122",
"i. c #266323",
"p. c #276423",
"a. c #266523",
"s. c #266524",
"d. c #296322",
"f. c #286323",
"g. c #2A6222",
"h. c #296523",
"j. c #2D6724",
"k. c #286824",
"l. c #296825",
"z. c #2A6824",
"x. c #2B6925",
"c. c #2C6A26",
"v. c #2B6E27",
"b. c #2E6C26",
"n. c #2C6E27",
"m. c #2E6F27",
"M. c #316D27",
"N. c #316E27",
"B. c #2F7128",
"V. c #2E7229",
"C. c #307028",
"Z. c #317128",
"A. c #337028",
"S. c #317329",
"D. c #347028",
"F. c #31742A",
"G. c #33762A",
"H. c #35762A",
"J. c #34772B",
"K. c #38762A",
"L. c #347B2C",
"P. c #357B2C",
"I. c #367B2C",
"U. c #387B2C",
"Y. c #3A7B2C",
"T. c #3B7D2D",
"R. c #387E2D",
"E. c #397F2E",
"W. c #39812E",
"Q. c #3B812F",
"!. c #3C802E",
"~. c #3B8430",
"^. c #3C8430",
"/. c #3D8430",
"(. c #3E8530",
"). c #3F8831",
"_. c #40832F",
"`. c #408831",
"'. c #418832",
"]. c #408A32",
"[. c #418A32",
"{. c #438A32",
"}. c #438B33",
"|. c #438D33",
" X c #478D33",
".X c #448E34",
"XX c #469135",
"oX c #479135",
"OX c #489336",
"+X c #4B9737",
"@X c #4C9737",
"#X c #4E9A39",
"$X c #53A03B",
/* pixels */
"                                    4 0.0.n                     ",
"              4 0.0.0.m             H.$X$X'.m                   ",
"              0.$X$X$XQ.m   3 =.c P $X$X$X$XD.F =.c             ",
"            ; 0.$X$X$X$X_.&.2.].g.0.$X$X$X Xg.h.].C.c           ",
"        3 ,.0.A.+X$X$X$X$X_.K.$XT.N.$X$X$X_.N.OX$X+Xg.o         ",
"      ; 2.OX$X+X+X$X$X$X$X$X$X$X@XOX$X$X$X$X$X$X$X#Xz.o         ",
"  4 0.&.0.$X$X$X$X$X$X$X$X$X$X$X$X$X$X$X$X$X$X$X#XY.&.o         ",
"  0.$X_.H.$X$X$X$X$X$X$X$X$X$X$X$X$X$X$X$X$X$X$X+XH.0.m         ",
"  0.#X@X$X$X$X$X$X$X$X$X$X$X$X$X$X$X$X$X$X$X$X$X$X$X$X_.m       ",
"  C Y.OX$X$X$X$X$X$X$X$X$X$X$X$X$X$X$X$X$X$X$X$X$X$X$X$X_.m     ",
"    0.$X$X$X$X$X$X$X$X$X$X$X$X$X$X$X$X$X$X$X$X$X#X#X$X$X$XD.o   ",
"  3 N.$X#X+X$X$X$X$X$X$X$X$X$X$X$X$X$X$X$X$X$X$X+X].+X$X$XD.o   ",
"  7.OX$XXXQ.+X$X$X$X$X$X$X$X$X$X$X$X$X#X@X$X$X$X$X(.B.(.XXj.o   ",
": M.$X#XXX].OX$X$X$X$X$X$X$X$X$X$X$X$X@X(.(.@X$X#X~.z.g.8.U     ",
"=.Q.'.S.R.$X$X$X$X$X$X$X$X$X$X$X$X$X$X$X{.z.m.(.].].$X_.&.o     ",
"R e.5.3.!.$X$X#X@X$X$X$X$X$X$X$X$X$X$X$X$X].a.s.!.OX$X#Xb.<     ",
": M R c.$X$X$XXX].$X$X$X#X+X$X$X$X$X$X#X+X$X+X~.~.XXXX).v.$.o   ",
"  H >.P.$X$X#XXX+X$X$X$X+XXX+X$X$X$X$X+X}.#X$XXXR.B.s.v.L.w.o   ",
"3 h.].].XXXX).].$X#X@X$X$XXX].$X$X$X$X$XXX~.XX X).S.3.<.s.:.o   ",
"@.R.$X+X].~.L.~.@X+X].XXXX).).$X$X$X$X#X).L.L.].$X+XS.3.$.H o   ",
"< e.@X$X$X+X~.!.OX$X+XQ.L.!.].+X$X#X X).B.F.].}.+X$XXXt.H B X   ",
"  E C.].].$XXX].$X$X$XXX!.XX+XXX@X+XP.i.t.J.$X+XXX#X).t.D v =   ",
"O C e.v.z.(.).).$X$X#X!.R.$X$X+XOX$X].7.5.~.].}.#X).V.6.H Z z . ",
"7 :.P.P.t.5.L.P.(.XX!.6.a.#X$X#X@X$X#Xj.+.e.y.B.!.s.3.$.H Z z . ",
"7 =.P.B.:.+.s.y.s.L.s.#.6.~.XX).R.(.).w.M D q.R.t.K #.#.H V s   ",
"8 W e.6.J D K q.L.J.V.<.<.V.J.P.a.1.s.6.H M *.s.:.M K H B @ +   ",
"t y N H L C F 1.t.z.J.s.$.;.t.s.5.#.#.+.L Z I H S 6 2 2 > + +   ",
"  + @ 6 ! | T J D $.s.5.+.S L H J H H S Q ] | / ~ s $ + + +     ",
"    + % ` O...^ Z L H H T | | A V 6 2 , s ' X.O.X._ - + +       ",
"      9 s { o. ._ g 2 5 ( O.o.] h * + + % w k x x k %           ",
"          e l d s $ + $ s x l s % + + + + + + + +               ",
"        # e p e q p q q q q e r q q q p e e p p p *             "
};
